<?xml version="1.0" encoding="UTF-8"?>
<svg version="1.1" xmlns="http://www.w3.org/2000/svg" width="48" height="48">
<path d="M0 0 C1.52947266 -0.02513672 1.52947266 -0.02513672 3.08984375 -0.05078125 C7.48653927 0.48652845 10.08446249 2.46662972 13.375 5.3125 C15.97915694 9.94211234 15.86348126 14.12757668 15.0625 19.3125 C12.44967332 26.91230837 6.51575258 32.62163293 1.0625 38.3125 C-5.77834345 35.41124943 -11.32141925 28.18207567 -14.30859375 21.484375 C-15.73419309 16.56118722 -16.30897769 11.03919281 -13.94921875 6.34765625 C-9.98260746 1.32491935 -6.20618659 0.02347864 0 0 Z M-3.4375 4.625 C-6.50580226 8.07684004 -6.25765753 12.08189906 -6.23828125 16.4609375 C-5.71934662 21.3807074 -3.86395455 25.7887719 -1.9375 30.3125 C-1.6075 30.3125 -1.2775 30.3125 -0.9375 30.3125 C-0.9375 21.4025 -0.9375 12.4925 -0.9375 3.3125 C-2.14426261 3.20274923 -2.14426261 3.20274923 -3.4375 4.625 Z M7.0625 5.3125 C7.07410156 6.32570313 7.08570312 7.33890625 7.09765625 8.3828125 C7.10704209 9.73437314 7.11614143 11.0859358 7.125 12.4375 C7.13337891 13.10265625 7.14175781 13.7678125 7.15039062 14.453125 C7.17032292 18.51931354 6.85140161 22.3245092 6.0625 26.3125 C10.87079349 21.82475941 12.21132026 19.05906156 12.62109375 12.41015625 C11.7557431 9.16055275 9.4956664 7.52272225 7.0625 5.3125 Z " fill="#FFFFFF" transform="translate(23.9375,-0.3125)"/>
<path d="M0 0 C1.9375 0.625 1.9375 0.625 4 2 C4.8125 5.0625 4.8125 5.0625 5 8 C4 9 4 9 0.9375 9.0625 C-0.031875 9.041875 -1.00125 9.02125 -2 9 C-2.6875 6.75 -2.6875 6.75 -3 4 C-1.5625 1.6875 -1.5625 1.6875 0 0 Z " fill="#FFFFFF" transform="translate(23,39)"/>
</svg>
